<svg xmlns="http://www.w3.org/2000/svg" viewBox="0 0 1024 1024" role="img" aria-labelledby="title"><title id="title">KOHON app icon</title><defs><linearGradient id="stem" x1="220" y1="200" x2="370" y2="810" gradientUnits="userSpaceOnUse"><stop stop-color="#17B8A6"/><stop offset="1" stop-color="#087578"/></linearGradient><linearGradient id="upper" x1="430" y1="550" x2="775" y2="205" gradientUnits="userSpaceOnUse"><stop stop-color="#087D86"/><stop offset=".55" stop-color="#16B9AF"/><stop offset="1" stop-color="#65DFBC"/></linearGradient><linearGradient id="lower" x1="420" y1="510" x2="805" y2="824" gradientUnits="userSpaceOnUse"><stop stop-color="#075964"/><stop offset=".48" stop-color="#07868F"/><stop offset="1" stop-color="#22BCB5"/></linearGradient><linearGradient id="canvas" x1="0" y1="0" x2="1024" y2="1024" gradientUnits="userSpaceOnUse"><stop stop-color="#F0FFF8"/><stop offset="1" stop-color="#D6EDE6"/></linearGradient></defs><path id="background" fill="url(#canvas)" d="M0 0H1024V1024H0Z"/><g id="kohON-symbol"><path id="upright" fill="url(#stem)" d="M266 184H372V752Q372 840 284 840H208V242Q208 184 266 184Z"/><path id="rising-arm" fill="url(#upper)" d="M408 497L660 231Q705 184 770 184H850L569 490Q514 550 450 566L408 577Z"/><path id="returning-arm" fill="url(#lower)" d="M408 599L450 588Q493 576 533 548L851 840H739Q686 840 648 804Z"/></g></svg>
